<?xml version="1.0" encoding="utf-8"?>
<!-- Generator: Adobe Adobe Illustrator 24.2.0, SVG Export Plug-In . SVG Version: 6.00 Build 0)  -->
<svg version="1.1" id="Layer_1" xmlns="http://www.w3.org/2000/svg" xmlns:xlink="http://www.w3.org/1999/xlink" x="0px" y="0px"
	 viewBox="0 0 148 43" style="enable-background:new 0 0 148 43;" xml:space="preserve">
<style type="text/css">
	.st0{display:none;}
	.st1{display:inline;fill:#5E5E5E;}
	.st2{display:inline;}
	.st3{display:inline;fill:#FFFFFF;}
	.st4{fill:#FFFFFF;}
	.st5{fill:none;}
	.st6{display:none;stroke:#FFFFFF;stroke-width:0.5;stroke-miterlimit:10;}
	.st7{font-family:'NimbusSan-Reg';}
	.st8{font-size:31.2696px;}
	.st9{fill:#FFFFFF;stroke:#FFFFFF;stroke-width:0.5;stroke-miterlimit:10;}
</style>
<g id="Layer_2" class="st0">
	<rect x="2" y="1.53" class="st1" width="144.03" height="39.5"/>
</g>
<g id="Layer_2_copy" class="st0">
	<rect x="2" y="1.53" class="st2" width="144.03" height="39.5"/>
</g>
<g>
	<g class="st0">
		<path class="st2" d="M10.21,36.2c-0.78,0-1.52-0.31-2.21-0.92c-0.56-0.5-0.78-1.14-0.98-1.8c-0.24-0.79-0.51-1.72-0.7-2.65
			c-0.18-0.87-0.3-1.73-0.34-2.58c-0.01-0.15-0.02-0.31-0.03-0.46c-0.02-0.28-0.04-0.55-0.04-0.83c0-0.63,0.06-1.25,0.11-1.86
			l0.04-0.48c0.06-0.77,0.21-1.59,0.47-2.58c0.35-1.36,0.87-2.68,1.55-3.91c0.4-0.74,0.88-1.48,1.42-2.21
			c0.53-0.71,1.12-1.4,1.75-2.03c0.5-0.51,1.06-1.01,1.66-1.49c0.82-0.66,1.7-1.26,2.62-1.78c0.9-0.51,1.88-0.96,2.92-1.34
			c1.07-0.39,2.22-0.71,3.51-0.98c0.85-0.18,1.72-0.27,2.57-0.35l0.33-0.03c0.13-0.01,0.26-0.03,0.38-0.05
			c0.25-0.04,0.49-0.07,0.74-0.07c0.46,0.02,0.75,0.19,1.01,0.55c0.2,0.28,0.35,0.58,0.49,0.88l0.1,0.2
			c0.43,0.86,0.78,1.73,1.04,2.6c0.31,1.03,0.51,1.96,0.61,2.85c0.12,1.12,0.22,2.06,0.16,3.03c-0.04,0.67-0.11,1.35-0.18,2.02
			c-0.08,0.75-0.23,1.49-0.38,2.21l-0.07,0.32c-0.02,0.12-0.06,0.24-0.09,0.37l-0.04,0.14c-0.31,1.19-0.72,2.32-1.25,3.43
			c-0.41,0.86-0.89,1.69-1.42,2.46c-0.41,0.59-0.88,1.18-1.39,1.75c-0.35,0.38-0.71,0.76-1.08,1.11c-0.62,0.58-1.2,1.05-1.76,1.44
			c-0.85,0.59-1.73,1.05-2.63,1.37c-0.76,0.27-1.45,0.43-2.11,0.49c-0.43,0.04-0.85,0.08-1.28,0.08l-0.25,0
			c-1.02-0.04-2.01-0.2-2.94-0.49c-0.08-0.03-0.16-0.06-0.24-0.09c-0.03,0.17-0.05,0.34-0.1,0.51c-0.17,0.6-0.59,0.98-1.26,1.12
			C10.67,36.17,10.43,36.2,10.21,36.2z M23.93,8.82c-0.21,0.04-0.41,0.09-0.62,0.15C23.21,9,23.1,9.03,22.99,9.06
			C22.8,9.1,22.6,9.15,22.41,9.24c-0.79,0.24-1.58,0.55-2.44,0.95c-0.81,0.38-1.58,0.84-2.3,1.36c-0.92,0.66-1.74,1.41-2.45,2.24
			c-0.87,1.02-1.6,2.15-2.17,3.38c-0.29,0.61-0.55,1.28-0.82,2.1c-0.27,0.81-0.49,1.71-0.7,2.84c-0.18,0.95-0.24,1.93-0.3,2.89
			l-0.01,0.21c-0.06,0.99,0.02,2.01,0.1,2.99l0.02,0.23c0.06,0.78,0.14,1.43,0.25,2.05l0.1,0.58c0.09,0.56,0.18,1.12,0.31,1.68
			c0.04,0.21,0.15,0.31,0.34,0.34c0.51,0.08,1.03,0.11,1.54,0.11c0.4,0,0.79-0.02,1.19-0.06c0.9-0.1,1.79-0.34,2.66-0.73
			c1.09-0.49,2.07-1.19,3.01-2.14c0.53-0.54,1.03-1.15,1.53-1.88c0.6-0.86,1.1-1.79,1.51-2.77c0.5-1.19,0.8-2.5,0.9-3.89
			c0.06-0.82,0.04-1.66-0.07-2.48c-0.13-1.03-0.33-1.97-0.62-2.87c-0.32-1.04-0.64-1.86-1-2.58c-0.18-0.36-0.42-0.65-0.73-0.88
			c-0.1-0.07-0.17-0.13-0.23-0.13c-0.29,0.05-0.53,0.09-0.75,0.16c-0.59,0.19-1.17,0.51-1.89,1.01c-0.71,0.5-1.38,1.09-1.99,1.75
			c-0.81,0.88-1.51,1.9-2.14,3.12c-0.4,0.77-0.76,1.64-1.11,2.65c-0.34,0.97-0.59,1.9-0.77,2.82c-0.07,0.38-0.12,0.77-0.17,1.16
			l-0.07,0.52c-0.09,0.66-0.12,1.31-0.14,1.81c-0.01,0.2-0.02,0.39-0.04,0.59l-0.02,0.29c0,0.05-0.03,0.1-0.08,0.12
			c-0.02,0.01-0.05,0.02-0.07,0.02c-0.03,0-0.05-0.01-0.08-0.02c-0.12-0.07-0.12-0.17-0.12-0.21l-0.01-0.33
			c-0.01-0.27-0.02-0.53-0.03-0.8c-0.02-1.47,0.03-2.67,0.15-3.79c0.09-0.8,0.2-1.53,0.35-2.24c0.26-1.26,0.6-2.37,1.04-3.4
			c0.3-0.71,0.6-1.33,0.93-1.88c0.28-0.48,0.6-0.96,0.97-1.47c0.52-0.72,1.12-1.4,1.79-2.03c0.81-0.77,1.72-1.46,2.69-2.06
			c0.83-0.52,1.73-0.98,2.67-1.4C23.43,9.02,23.68,8.92,23.93,8.82z"/>
		<path class="st3" d="M25.98,7.94c0.03,0,0.06,0,0.09,0c0.36,0.01,0.6,0.21,0.8,0.48c0.23,0.33,0.4,0.7,0.58,1.06
			c0.42,0.83,0.76,1.69,1.04,2.58c0.28,0.93,0.5,1.86,0.61,2.82c0.11,1,0.22,2,0.16,3.01c-0.04,0.67-0.11,1.34-0.18,2.01
			c-0.09,0.85-0.27,1.69-0.44,2.52c-0.03,0.16-0.08,0.33-0.13,0.5c-0.31,1.18-0.72,2.31-1.24,3.41c-0.41,0.85-0.88,1.66-1.41,2.44
			c-0.42,0.61-0.88,1.18-1.38,1.73c-0.34,0.38-0.7,0.75-1.07,1.1c-0.55,0.51-1.12,1-1.74,1.43c-0.81,0.56-1.67,1.02-2.6,1.35
			c-0.67,0.24-1.36,0.42-2.08,0.49c-0.42,0.04-0.84,0.08-1.27,0.08c-0.08,0-0.17,0-0.25,0c-0.99-0.03-1.96-0.19-2.9-0.49
			c-0.13-0.04-0.26-0.1-0.41-0.16c-0.04,0.24-0.06,0.46-0.12,0.68c-0.17,0.59-0.6,0.9-1.15,1.02c-0.23,0.05-0.45,0.07-0.66,0.07
			c-0.78,0-1.48-0.32-2.11-0.88c-0.53-0.47-0.75-1.09-0.94-1.73c-0.26-0.87-0.51-1.75-0.7-2.64c-0.18-0.84-0.29-1.69-0.34-2.56
			c-0.02-0.43-0.07-0.85-0.07-1.28c0-0.78,0.09-1.55,0.15-2.33c0.07-0.87,0.25-1.72,0.47-2.55c0.35-1.35,0.86-2.65,1.54-3.88
			c0.42-0.76,0.89-1.49,1.41-2.19c0.53-0.71,1.11-1.39,1.73-2.02c0.52-0.53,1.07-1.02,1.65-1.48c0.82-0.66,1.69-1.25,2.6-1.77
			c0.93-0.52,1.9-0.96,2.9-1.33C19.63,9,20.8,8.69,21.99,8.44c0.95-0.2,1.92-0.28,2.88-0.38C25.24,8.02,25.6,7.94,25.98,7.94
			 M25.44,8.4c-0.04,0-0.08,0-0.13,0c-0.04,0-0.08,0-0.13,0.01c-0.64,0.15-1.29,0.23-1.92,0.42c-0.3,0.09-0.61,0.13-0.92,0.27
			c-0.84,0.25-1.65,0.58-2.44,0.95c-0.82,0.39-1.59,0.84-2.33,1.37c-0.91,0.66-1.74,1.41-2.47,2.27c-0.88,1.04-1.61,2.18-2.19,3.41
			c-0.32,0.69-0.59,1.4-0.83,2.12c-0.31,0.94-0.53,1.89-0.71,2.86c-0.19,1.03-0.25,2.07-0.31,3.11c-0.07,1.08,0.03,2.17,0.12,3.25
			c0.06,0.69,0.13,1.38,0.25,2.06c0.13,0.76,0.24,1.52,0.4,2.27c0.05,0.25,0.2,0.42,0.47,0.46c0.52,0.08,1.04,0.11,1.56,0.11
			c0.4,0,0.8-0.02,1.21-0.07c0.94-0.1,1.84-0.36,2.7-0.74c1.16-0.52,2.17-1.27,3.06-2.18c0.57-0.58,1.08-1.22,1.55-1.9
			c0.61-0.88,1.11-1.81,1.52-2.8c0.52-1.26,0.81-2.58,0.91-3.94c0.06-0.83,0.04-1.67-0.07-2.51c-0.13-0.98-0.33-1.95-0.62-2.9
			c-0.28-0.89-0.6-1.77-1.01-2.61c-0.19-0.37-0.44-0.69-0.77-0.94c-0.09-0.07-0.2-0.16-0.32-0.16c-0.01,0-0.03,0-0.04,0
			c-0.26,0.04-0.51,0.08-0.76,0.16c-0.7,0.23-1.33,0.61-1.93,1.03c-0.74,0.52-1.41,1.11-2.01,1.77c-0.87,0.95-1.58,2.01-2.16,3.15
			c-0.44,0.86-0.8,1.75-1.12,2.67c-0.32,0.93-0.59,1.88-0.77,2.84c-0.11,0.56-0.16,1.13-0.23,1.69c-0.08,0.61-0.12,1.21-0.15,1.82
			c-0.01,0.29-0.04,0.58-0.05,0.87c-0.05-0.03-0.05-0.06-0.05-0.09c-0.01-0.38-0.03-0.75-0.04-1.13c-0.02-1.26,0.01-2.52,0.15-3.77
			c0.08-0.75,0.19-1.49,0.35-2.22c0.24-1.15,0.57-2.29,1.03-3.38c0.27-0.64,0.57-1.27,0.92-1.87c0.3-0.5,0.62-0.99,0.96-1.46
			c0.53-0.73,1.12-1.39,1.77-2.01c0.82-0.77,1.71-1.45,2.67-2.04c0.85-0.53,1.74-0.99,2.65-1.39c0.66-0.29,1.34-0.56,2.04-0.77
			c0.1-0.03,0.19-0.07,0.28-0.11C25.51,8.4,25.47,8.4,25.44,8.4 M25.98,7.64c-0.26,0-0.52,0.04-0.76,0.07
			c-0.13,0.02-0.25,0.04-0.38,0.05L24.5,7.79c-0.84,0.08-1.72,0.17-2.57,0.35c-1.3,0.27-2.46,0.6-3.54,0.99
			c-1.04,0.38-2.03,0.83-2.94,1.35c-0.93,0.53-1.82,1.13-2.64,1.79c-0.6,0.48-1.16,0.99-1.67,1.51c-0.63,0.64-1.22,1.33-1.76,2.05
			c-0.55,0.73-1.03,1.48-1.44,2.22C7.25,19.3,6.72,20.63,6.37,22c-0.26,1-0.41,1.83-0.47,2.61l-0.04,0.48
			c-0.05,0.61-0.11,1.24-0.11,1.87c0,0.28,0.02,0.56,0.04,0.84c0.01,0.15,0.02,0.3,0.03,0.45c0.05,0.86,0.16,1.73,0.34,2.6
			c0.2,0.95,0.47,1.87,0.71,2.67c0.2,0.66,0.44,1.35,1.03,1.87c0.72,0.63,1.49,0.95,2.31,0.95c0.24,0,0.48-0.03,0.73-0.08
			c0.71-0.16,1.19-0.58,1.37-1.23c0.03-0.11,0.05-0.23,0.07-0.34c0.03,0.01,0.05,0.02,0.08,0.03c0.94,0.3,1.95,0.47,2.98,0.5
			c0.09,0,0.17,0,0.26,0c0.45,0,0.89-0.04,1.3-0.08c0.68-0.07,1.38-0.23,2.15-0.5c0.91-0.32,1.81-0.79,2.67-1.38
			c0.57-0.4,1.15-0.87,1.78-1.45c0.35-0.33,0.71-0.69,1.09-1.12c0.52-0.57,0.99-1.16,1.4-1.76c0.54-0.78,1.02-1.61,1.44-2.48
			c0.53-1.12,0.95-2.25,1.26-3.46l0.04-0.14c0.04-0.13,0.07-0.25,0.1-0.38l0.07-0.32c0.15-0.72,0.3-1.47,0.38-2.23
			c0.08-0.72,0.14-1.37,0.18-2.03c0.06-1.07-0.06-2.17-0.16-3.06c-0.1-0.9-0.3-1.84-0.62-2.88c-0.27-0.87-0.62-1.76-1.05-2.62
			l-0.1-0.2c-0.15-0.3-0.3-0.61-0.5-0.9c-0.28-0.4-0.62-0.6-1.03-0.61L25.98,7.64L25.98,7.64z M13.88,33.04
			c-0.51,0-1.02-0.04-1.52-0.11c-0.11-0.02-0.18-0.06-0.22-0.22c-0.12-0.55-0.21-1.12-0.3-1.67l-0.1-0.58
			c-0.1-0.6-0.18-1.27-0.25-2.03l-0.02-0.23c-0.08-0.98-0.16-1.99-0.1-2.97L11.38,25c0.06-0.95,0.12-1.92,0.3-2.86
			c0.21-1.12,0.43-2.02,0.7-2.82c0.27-0.82,0.53-1.48,0.81-2.08c0.57-1.21,1.29-2.34,2.15-3.35c0.7-0.82,1.51-1.56,2.42-2.22
			c0.71-0.51,1.48-0.96,2.28-1.34c0.68-0.32,1.32-0.58,1.94-0.79c-0.54,0.27-1.06,0.57-1.56,0.87c-0.98,0.61-1.9,1.31-2.72,2.08
			c-0.68,0.64-1.29,1.32-1.81,2.05c-0.37,0.52-0.69,1-0.98,1.49c-0.33,0.56-0.63,1.18-0.94,1.9c-0.44,1.04-0.78,2.17-1.05,3.43
			c-0.15,0.71-0.26,1.45-0.35,2.25c-0.12,1.12-0.17,2.33-0.15,3.81c0,0.26,0.01,0.53,0.02,0.79l0.01,0.35
			c0,0.15,0.07,0.27,0.19,0.34c0.05,0.03,0.1,0.04,0.15,0.04c0.05,0,0.1-0.01,0.14-0.03c0.09-0.05,0.15-0.14,0.16-0.25l0.02-0.27
			c0.01-0.2,0.03-0.4,0.04-0.6c0.02-0.49,0.06-1.14,0.14-1.79c0.02-0.17,0.04-0.35,0.06-0.52c0.05-0.38,0.09-0.77,0.17-1.15
			c0.17-0.91,0.43-1.85,0.76-2.8c0.35-1,0.71-1.86,1.11-2.63c0.62-1.2,1.31-2.21,2.12-3.09c0.6-0.65,1.26-1.23,1.97-1.73
			c0.7-0.5,1.28-0.8,1.85-0.99c0.21-0.07,0.44-0.11,0.68-0.15c0.05,0,0.11,0.05,0.14,0.07c0.32,0.24,0.55,0.52,0.71,0.85
			c0.36,0.72,0.67,1.53,1,2.56c0.28,0.89,0.48,1.82,0.61,2.85c0.11,0.81,0.13,1.64,0.07,2.45c-0.1,1.37-0.4,2.67-0.89,3.85
			c-0.4,0.97-0.9,1.89-1.49,2.74c-0.5,0.72-0.99,1.33-1.52,1.86c-0.93,0.94-1.9,1.63-2.97,2.11c-0.85,0.38-1.73,0.62-2.61,0.72
			C14.66,33.02,14.27,33.04,13.88,33.04L13.88,33.04z"/>
	</g>
	<g class="st0">
		<path class="st2" d="M28.49,22.92c-0.31,1.18-0.72,2.31-1.24,3.41c-0.41,0.85-0.88,1.66-1.41,2.44c-0.42,0.61-0.88,1.18-1.38,1.73
			c-0.34,0.38-0.7,0.75-1.07,1.1c-0.55,0.51-1.12,1-1.74,1.43c-0.81,0.56-1.67,1.02-2.6,1.35c-0.67,0.24-1.36,0.42-2.08,0.49
			c-0.5,0.05-1.01,0.09-1.52,0.07c-0.99-0.03-1.96-0.19-2.9-0.49c-0.13-0.04-0.26-0.1-0.41-0.16c-0.04,0.24-0.06,0.46-0.12,0.68
			c-0.17,0.59-0.6,0.9-1.15,1.02C9.81,36.2,8.9,35.88,8.1,35.17c-0.53-0.47-0.75-1.09-0.94-1.73c-0.26-0.87-0.51-1.75-0.7-2.64
			c-0.18-0.84-0.29-1.69-0.34-2.56c-0.02-0.43-0.07-0.85-0.07-1.28c0-0.78,0.09-1.55,0.15-2.33c0.07-0.87,0.25-1.72,0.47-2.55
			c0.35-1.35,0.86-2.65,1.54-3.88c0.42-0.76,0.89-1.49,1.41-2.19c0.53-0.71,1.11-1.39,1.73-2.02c0.52-0.53,1.07-1.02,1.65-1.48
			c0.82-0.66,1.69-1.25,2.6-1.77c0.93-0.52,1.9-0.96,2.9-1.33C19.63,9,20.8,8.69,21.99,8.44c0.95-0.2,1.92-0.28,2.88-0.38
			c0.4-0.04,0.79-0.13,1.2-0.12c0.36,0.01,0.6,0.21,0.8,0.48c0.23,0.33,0.4,0.7,0.58,1.06c0.42,0.83,0.76,1.69,1.04,2.58
			c0.28,0.93,0.5,1.86,0.61,2.82c0.11,1,0.22,2,0.16,3.01c-0.04,0.67-0.11,1.34-0.18,2.01c-0.09,0.85-0.27,1.69-0.44,2.52
			C28.59,22.59,28.54,22.75,28.49,22.92z M22.35,9.1c-0.84,0.25-1.65,0.58-2.44,0.95c-0.82,0.39-1.59,0.84-2.33,1.37
			c-0.91,0.66-1.74,1.41-2.47,2.27c-0.88,1.04-1.61,2.18-2.19,3.41c-0.32,0.69-0.59,1.4-0.83,2.12c-0.31,0.94-0.53,1.89-0.71,2.86
			c-0.19,1.03-0.25,2.07-0.31,3.11c-0.07,1.08,0.03,2.17,0.12,3.25c0.06,0.69,0.13,1.38,0.25,2.06c0.13,0.76,0.24,1.52,0.4,2.27
			c0.05,0.25,0.2,0.42,0.47,0.46c0.92,0.14,1.84,0.15,2.77,0.05c0.94-0.1,1.84-0.36,2.7-0.74c1.16-0.52,2.17-1.27,3.06-2.18
			c0.57-0.58,1.08-1.22,1.55-1.9c0.61-0.88,1.11-1.81,1.52-2.8c0.52-1.26,0.81-2.58,0.91-3.94c0.06-0.83,0.04-1.67-0.07-2.51
			c-0.13-0.98-0.33-1.95-0.62-2.9c-0.28-0.89-0.6-1.77-1.01-2.61c-0.19-0.37-0.44-0.69-0.77-0.94c-0.11-0.08-0.22-0.18-0.37-0.16
			c-0.26,0.04-0.51,0.08-0.76,0.16c-0.7,0.23-1.33,0.61-1.93,1.03c-0.74,0.52-1.41,1.11-2.01,1.77c-0.87,0.95-1.58,2.01-2.16,3.15
			c-0.44,0.86-0.8,1.75-1.12,2.67c-0.32,0.93-0.59,1.88-0.77,2.84c-0.11,0.56-0.16,1.13-0.23,1.69c-0.08,0.61-0.12,1.21-0.15,1.82
			c-0.01,0.29-0.04,0.58-0.05,0.87c-0.05-0.03-0.05-0.06-0.05-0.09c-0.01-0.38-0.03-0.75-0.04-1.13c-0.02-1.26,0.01-2.52,0.15-3.77
			c0.08-0.75,0.19-1.49,0.35-2.22c0.24-1.15,0.57-2.29,1.03-3.38c0.27-0.64,0.57-1.27,0.92-1.87c0.3-0.5,0.62-0.99,0.96-1.46
			c0.53-0.73,1.12-1.39,1.77-2.01c0.82-0.77,1.71-1.45,2.67-2.04c0.85-0.53,1.74-0.99,2.65-1.39c0.66-0.29,1.34-0.56,2.04-0.77
			c0.1-0.03,0.19-0.07,0.28-0.11c-0.12,0.02-0.24-0.01-0.36,0.02c-0.64,0.15-1.29,0.23-1.92,0.42C22.97,8.92,22.66,8.96,22.35,9.1z"
			/>
	</g>
	<g>
		<g>
			<path class="st4" d="M28.49,22.92c-0.31,1.18-0.72,2.31-1.24,3.41c-0.41,0.85-0.88,1.66-1.41,2.44
				c-0.42,0.61-0.88,1.18-1.38,1.73c-0.34,0.38-0.7,0.75-1.07,1.1c-0.55,0.51-1.12,1-1.74,1.43c-0.81,0.56-1.67,1.02-2.6,1.35
				c-0.67,0.24-1.36,0.42-2.08,0.49c-0.5,0.05-1.01,0.09-1.52,0.07c-0.99-0.03-1.96-0.19-2.9-0.49c-0.13-0.04-0.26-0.1-0.41-0.16
				c-0.04,0.24-0.06,0.46-0.12,0.68c-0.17,0.59-0.6,0.9-1.15,1.02C9.81,36.2,8.9,35.88,8.1,35.17c-0.53-0.47-0.75-1.09-0.94-1.73
				c-0.26-0.87-0.51-1.75-0.7-2.64c-0.18-0.84-0.29-1.69-0.34-2.56c-0.02-0.43-0.07-0.85-0.07-1.28c0-0.78,0.09-1.55,0.15-2.33
				c0.07-0.87,0.25-1.72,0.47-2.55c0.35-1.35,0.86-2.65,1.54-3.88c0.42-0.76,0.89-1.49,1.41-2.19c0.53-0.71,1.11-1.39,1.73-2.02
				c0.52-0.53,1.07-1.02,1.65-1.48c0.82-0.66,1.69-1.25,2.6-1.77c0.93-0.52,1.9-0.96,2.9-1.33C19.63,9,20.8,8.69,21.99,8.44
				c0.95-0.2,1.92-0.28,2.88-0.38c0.4-0.04,0.79-0.13,1.2-0.12c0.36,0.01,0.6,0.21,0.8,0.48c0.23,0.33,0.4,0.7,0.58,1.06
				c0.42,0.83,0.76,1.69,1.04,2.58c0.28,0.93,0.5,1.86,0.61,2.82c0.11,1,0.22,2,0.16,3.01c-0.04,0.67-0.11,1.34-0.18,2.01
				c-0.09,0.85-0.27,1.69-0.44,2.52C28.59,22.59,28.54,22.75,28.49,22.92z M22.35,9.1c-0.84,0.25-1.65,0.58-2.44,0.95
				c-0.82,0.39-1.59,0.84-2.33,1.37c-0.91,0.66-1.74,1.41-2.47,2.27c-0.88,1.04-1.61,2.18-2.19,3.41c-0.32,0.69-0.59,1.4-0.83,2.12
				c-0.31,0.94-0.53,1.89-0.71,2.86c-0.19,1.03-0.25,2.07-0.31,3.11c-0.07,1.08,0.03,2.17,0.12,3.25c0.06,0.69,0.13,1.38,0.25,2.06
				c0.13,0.76,0.24,1.52,0.4,2.27c0.05,0.25,0.2,0.42,0.47,0.46c0.92,0.14,1.84,0.15,2.77,0.05c0.94-0.1,1.84-0.36,2.7-0.74
				c1.16-0.52,2.17-1.27,3.06-2.18c0.57-0.58,1.08-1.22,1.55-1.9c0.61-0.88,1.11-1.81,1.52-2.8c0.52-1.26,0.81-2.58,0.91-3.94
				c0.06-0.83,0.04-1.67-0.07-2.51c-0.13-0.98-0.33-1.95-0.62-2.9c-0.28-0.89-0.6-1.77-1.01-2.61c-0.19-0.37-0.44-0.69-0.77-0.94
				c-0.11-0.08-0.22-0.18-0.37-0.16c-0.26,0.04-0.51,0.08-0.76,0.16c-0.7,0.23-1.33,0.61-1.93,1.03c-0.74,0.52-1.41,1.11-2.01,1.77
				c-0.87,0.95-1.58,2.01-2.16,3.15c-0.44,0.86-0.8,1.75-1.12,2.67c-0.32,0.93-0.59,1.88-0.77,2.84c-0.11,0.56-0.16,1.13-0.23,1.69
				c-0.08,0.61-0.12,1.21-0.15,1.82c-0.01,0.29-0.04,0.58-0.05,0.87c-0.05-0.03-0.05-0.06-0.05-0.09c-0.01-0.38-0.03-0.75-0.04-1.13
				c-0.02-1.26,0.01-2.52,0.15-3.77c0.08-0.75,0.19-1.49,0.35-2.22c0.24-1.15,0.57-2.29,1.03-3.38c0.27-0.64,0.57-1.27,0.92-1.87
				c0.3-0.5,0.62-0.99,0.96-1.46c0.53-0.73,1.12-1.39,1.77-2.01c0.82-0.77,1.71-1.45,2.67-2.04c0.85-0.53,1.74-0.99,2.65-1.39
				c0.66-0.29,1.34-0.56,2.04-0.77c0.1-0.03,0.19-0.07,0.28-0.11c-0.12,0.02-0.24-0.01-0.36,0.02c-0.64,0.15-1.29,0.23-1.92,0.42
				C22.97,8.92,22.66,8.96,22.35,9.1z"/>
		</g>
	</g>
	<g class="st0">
		<path class="st2" d="M7.3,18.75c-0.03,0-0.05-0.01-0.07-0.02c-0.04-0.02-0.07-0.07-0.08-0.12c-0.03-0.69,0.19-1.27,0.44-1.85
			c0.37-0.81,0.85-1.58,1.5-2.44c0.46-0.6,0.93-1.17,1.42-1.7c0.45-0.48,0.94-0.97,1.46-1.44c0.61-0.56,1.13-1,1.65-1.39
			c0.77-0.58,1.49-1.04,2.2-1.4c0.95-0.48,1.94-0.79,2.78-1.02c1.14-0.32,2.35-0.48,3.59-0.48c0.25,0,0.51,0.01,0.77,0.02
			c0.91,0.05,1.81,0.2,2.67,0.47c0.05,0.03,0.17,0.12,0.17,0.18c0,0.13-0.09,0.22-0.22,0.22c-0.56,0.02-1.18,0.04-1.81,0.12
			c-0.79,0.1-1.61,0.21-2.42,0.4l-0.46,0.1c-0.21,0.05-0.42,0.09-0.64,0.15c-0.96,0.24-1.91,0.56-2.83,0.94
			c-0.85,0.35-1.68,0.76-2.47,1.23c-0.85,0.51-1.65,1.07-2.38,1.67c-0.72,0.6-1.41,1.25-2.05,1.96c-0.46,0.51-0.92,1.08-1.42,1.76
			c-0.49,0.68-0.97,1.42-1.46,2.28c-0.06,0.14-0.11,0.26-0.27,0.35C7.35,18.74,7.32,18.75,7.3,18.75z"/>
		<path class="st3" d="M22.18,7.03c0.25,0,0.5,0.01,0.76,0.02c0.89,0.05,1.77,0.2,2.63,0.46c0.02,0.01,0.04,0.02,0.06,0.03
			c0,0.07-0.04,0.07-0.07,0.07c-0.01,0-0.01,0-0.02,0c0,0,0,0-0.01,0c-0.6,0.02-1.21,0.05-1.8,0.13c-0.81,0.11-1.63,0.21-2.43,0.4
			c-0.37,0.09-0.73,0.16-1.1,0.25c-0.97,0.25-1.93,0.56-2.86,0.95c-0.86,0.35-1.69,0.77-2.48,1.24c-0.84,0.5-1.64,1.06-2.4,1.69
			c-0.74,0.61-1.42,1.27-2.07,1.97c-0.51,0.56-0.98,1.16-1.43,1.77c-0.53,0.74-1.02,1.5-1.47,2.29C7.46,18.4,7.44,18.52,7.3,18.6
			c-0.03-0.65,0.18-1.21,0.43-1.78c0.4-0.87,0.91-1.66,1.48-2.41c0.44-0.58,0.91-1.15,1.41-1.68c0.46-0.5,0.95-0.98,1.45-1.44
			c0.53-0.48,1.07-0.95,1.63-1.38c0.69-0.52,1.41-1,2.18-1.39c0.88-0.44,1.8-0.75,2.75-1.01C19.8,7.18,20.98,7.03,22.18,7.03
			 M22.18,6.73c-1.26,0-2.48,0.16-3.63,0.49c-0.85,0.24-1.84,0.54-2.8,1.03c-0.72,0.36-1.45,0.83-2.23,1.42
			c-0.51,0.39-1.04,0.83-1.66,1.39c-0.52,0.48-1.02,0.97-1.47,1.45c-0.49,0.53-0.97,1.1-1.43,1.71c-0.66,0.87-1.14,1.65-1.51,2.47
			c-0.25,0.58-0.5,1.2-0.46,1.92c0.01,0.1,0.06,0.2,0.15,0.25c0.05,0.03,0.1,0.04,0.15,0.04c0.05,0,0.1-0.01,0.14-0.04
			c0.2-0.11,0.27-0.27,0.31-0.36c0.51-0.89,0.98-1.64,1.47-2.31c0.49-0.67,0.95-1.24,1.4-1.75c0.63-0.7,1.32-1.35,2.04-1.94
			c0.73-0.6,1.52-1.16,2.36-1.66c0.78-0.46,1.6-0.88,2.44-1.22c0.92-0.38,1.86-0.69,2.82-0.93c0.21-0.05,0.41-0.1,0.62-0.14
			c0.16-0.03,0.32-0.07,0.47-0.11c0.8-0.19,1.61-0.3,2.4-0.4c0.62-0.08,1.25-0.11,1.77-0.12c0,0,0,0,0,0c0.23,0,0.38-0.15,0.39-0.36
			c0-0.12-0.06-0.23-0.17-0.28c-0.04-0.02-0.07-0.03-0.1-0.05c-0.88-0.27-1.79-0.43-2.71-0.47C22.7,6.74,22.44,6.73,22.18,6.73
			L22.18,6.73z"/>
	</g>
	<g>
		<path d="M7.73,16.81c0.4-0.87,0.91-1.66,1.48-2.41c0.44-0.58,0.91-1.15,1.41-1.68c0.46-0.5,0.95-0.98,1.45-1.44
			c0.53-0.48,1.07-0.95,1.63-1.38c0.69-0.52,1.41-1,2.18-1.39c0.88-0.44,1.8-0.75,2.75-1.01c1.41-0.39,2.85-0.53,4.31-0.46
			c0.89,0.05,1.77,0.2,2.63,0.46c0.02,0.01,0.04,0.02,0.06,0.03c0,0.08-0.06,0.07-0.1,0.07c-0.6,0.02-1.21,0.05-1.8,0.13
			c-0.81,0.11-1.63,0.21-2.43,0.4c-0.37,0.09-0.73,0.16-1.1,0.25c-0.97,0.25-1.93,0.56-2.86,0.95c-0.86,0.35-1.69,0.77-2.48,1.24
			c-0.84,0.5-1.64,1.06-2.4,1.69c-0.74,0.61-1.42,1.27-2.07,1.97c-0.51,0.56-0.98,1.16-1.43,1.77c-0.53,0.74-1.02,1.5-1.47,2.29
			C7.46,18.4,7.44,18.52,7.3,18.6C7.26,17.94,7.48,17.38,7.73,16.81z"/>
	</g>
	<g>
		<path class="st4" d="M7.73,16.81c0.4-0.87,0.91-1.66,1.48-2.41c0.44-0.58,0.91-1.15,1.41-1.68c0.46-0.5,0.95-0.98,1.45-1.44
			c0.53-0.48,1.07-0.95,1.63-1.38c0.69-0.52,1.41-1,2.18-1.39c0.88-0.44,1.8-0.75,2.75-1.01c1.41-0.39,2.85-0.53,4.31-0.46
			c0.89,0.05,1.77,0.2,2.63,0.46c0.02,0.01,0.04,0.02,0.06,0.03c0,0.08-0.06,0.07-0.1,0.07c-0.6,0.02-1.21,0.05-1.8,0.13
			c-0.81,0.11-1.63,0.21-2.43,0.4c-0.37,0.09-0.73,0.16-1.1,0.25c-0.97,0.25-1.93,0.56-2.86,0.95c-0.86,0.35-1.69,0.77-2.48,1.24
			c-0.84,0.5-1.64,1.06-2.4,1.69c-0.74,0.61-1.42,1.27-2.07,1.97c-0.51,0.56-0.98,1.16-1.43,1.77c-0.53,0.74-1.02,1.5-1.47,2.29
			C7.46,18.4,7.44,18.52,7.3,18.6C7.26,17.94,7.48,17.38,7.73,16.81z"/>
	</g>
	<g class="st0">
		<path class="st2" d="M14.05,22.66c-0.07-0.01-0.12-0.06-0.12-0.13c-0.02-0.19,0.03-0.35,0.08-0.5c0.25-0.74,0.53-1.56,0.9-2.33
			c0.56-1.17,1.09-2.1,1.69-2.91c0.5-0.69,0.96-1.22,1.43-1.67c0.79-0.76,1.59-1.33,2.42-1.76c0.24-0.12,0.5-0.25,0.79-0.31
			c0.07-0.02,0.14-0.02,0.21-0.02c0.25,0,0.59,0.11,0.81,0.63c0.02,0.04,0.03,0.18,0.01,0.22c-0.04,0.1-0.14,0.14-0.18,0.15
			c-0.46,0.18-0.93,0.4-1.45,0.7c-0.91,0.52-1.76,1.17-2.53,1.95c-0.45,0.45-0.9,0.97-1.36,1.58c-1.09,1.47-1.92,3.09-2.52,4.33
			c-0.02,0.05-0.08,0.08-0.13,0.08C14.07,22.67,14.06,22.67,14.05,22.66z"/>
		<path class="st3" d="M21.45,13.18c0.34,0,0.54,0.24,0.67,0.53c0.04,0.1-0.01,0.14-0.09,0.17c-0.51,0.2-1,0.44-1.47,0.71
			c-0.94,0.54-1.8,1.2-2.56,1.97c-0.5,0.5-0.95,1.03-1.38,1.6c-1.01,1.37-1.8,2.84-2.54,4.36c-0.02-0.17,0.04-0.32,0.09-0.47
			c0.26-0.77,0.53-1.55,0.88-2.28c0.48-1.01,1.01-1.98,1.67-2.89c0.43-0.59,0.89-1.15,1.41-1.65c0.72-0.68,1.5-1.28,2.38-1.73
			c0.24-0.12,0.49-0.24,0.76-0.3C21.34,13.18,21.4,13.18,21.45,13.18 M21.45,12.88c-0.08,0-0.16,0.01-0.24,0.03
			c-0.31,0.07-0.58,0.2-0.83,0.32c-0.85,0.43-1.65,1.01-2.46,1.78c-0.48,0.46-0.94,1-1.45,1.69c-0.6,0.82-1.14,1.76-1.7,2.94
			c-0.37,0.78-0.66,1.61-0.89,2.32c-0.06,0.19-0.13,0.38-0.1,0.6c0.01,0.13,0.12,0.24,0.25,0.26c0.02,0,0.03,0,0.05,0
			c0.11,0,0.22-0.06,0.27-0.17c0.6-1.24,1.43-2.85,2.51-4.31c0.46-0.6,0.9-1.12,1.35-1.56c0.76-0.76,1.6-1.41,2.5-1.92
			c0.51-0.29,0.97-0.51,1.43-0.69c0.06-0.02,0.2-0.08,0.27-0.24c0.03-0.07,0.05-0.19-0.01-0.33C22.14,13,21.74,12.88,21.45,12.88
			L21.45,12.88z"/>
	</g>
	<g>
		<path d="M16.62,18.16c-1.01,1.37-1.8,2.84-2.54,4.36c-0.02-0.17,0.04-0.32,0.09-0.47c0.26-0.77,0.53-1.55,0.88-2.28
			c0.48-1.01,1.01-1.98,1.67-2.89c0.43-0.59,0.89-1.15,1.41-1.65c0.72-0.68,1.5-1.28,2.38-1.73c0.24-0.12,0.49-0.24,0.76-0.3
			c0.45-0.1,0.7,0.18,0.84,0.51c0.04,0.1-0.01,0.14-0.09,0.17c-0.51,0.2-1,0.44-1.47,0.71c-0.94,0.54-1.8,1.2-2.56,1.97
			C17.5,17.06,17.05,17.59,16.62,18.16z"/>
	</g>
	<g>
		<path class="st4" d="M16.62,18.16c-1.01,1.37-1.8,2.84-2.54,4.36c-0.02-0.17,0.04-0.32,0.09-0.47c0.26-0.77,0.53-1.55,0.88-2.28
			c0.48-1.01,1.01-1.98,1.67-2.89c0.43-0.59,0.89-1.15,1.41-1.65c0.72-0.68,1.5-1.28,2.38-1.73c0.24-0.12,0.49-0.24,0.76-0.3
			c0.45-0.1,0.7,0.18,0.84,0.51c0.04,0.1-0.01,0.14-0.09,0.17c-0.51,0.2-1,0.44-1.47,0.71c-0.94,0.54-1.8,1.2-2.56,1.97
			C17.5,17.06,17.05,17.59,16.62,18.16z"/>
	</g>
	<g class="st0">
		<path class="st2" d="M13.93,32.42c-0.54,0-0.85-0.31-0.86-0.86c0-0.15,0-0.24,0.05-0.35c0.03-0.05,0.08-0.08,0.13-0.08
			c0.01,0,0.01,0,0.02,0c0.37,0.05,0.75,0.08,1.13,0.08c1.75,0,3.53-0.55,5.61-1.74c0.02-0.01,0.05-0.02,0.07-0.02
			c0.02,0,0.05,0.01,0.07,0.02c0.05,0.03,0.08,0.07,0.08,0.12c0.01,0.19-0.11,0.27-0.17,0.31c-0.69,0.5-1.39,1-2.16,1.39
			c-0.84,0.43-1.62,0.73-2.37,0.91c-0.49,0.12-1.01,0.19-1.55,0.21C14,32.42,13.94,32.42,13.93,32.42z"/>
		<path class="st3" d="M20.09,29.6c0.01,0.12-0.08,0.15-0.13,0.19c-0.68,0.49-1.37,0.98-2.12,1.37c-0.75,0.38-1.52,0.7-2.33,0.9
			c-0.5,0.12-1.01,0.19-1.52,0.21c-0.02,0-0.04,0-0.06,0c-0.45,0-0.7-0.24-0.71-0.71c0.01-0.09-0.01-0.17,0.04-0.28
			c0.39,0.05,0.77,0.08,1.15,0.08C16.44,31.36,18.29,30.63,20.09,29.6 M20.09,29.3c-0.05,0-0.1,0.01-0.15,0.04
			c-2.05,1.17-3.81,1.72-5.54,1.72c-0.37,0-0.74-0.03-1.11-0.08c-0.01,0-0.03,0-0.04,0c-0.11,0-0.22,0.06-0.27,0.16
			c-0.07,0.14-0.07,0.26-0.07,0.34l0,0.05c0.01,0.65,0.39,1.03,1.01,1.03l0.07,0c0.54-0.02,1.07-0.1,1.57-0.21
			c0.76-0.18,1.55-0.48,2.4-0.92c0.78-0.4,1.48-0.91,2.16-1.39c0.08-0.05,0.27-0.18,0.26-0.45c-0.01-0.1-0.06-0.2-0.16-0.25
			C20.19,29.32,20.14,29.3,20.09,29.3L20.09,29.3z"/>
	</g>
	<g>
		<path d="M13.22,31.56c0.01-0.09-0.01-0.17,0.04-0.28c2.48,0.34,4.7-0.46,6.83-1.68c0.01,0.12-0.08,0.15-0.13,0.19
			c-0.68,0.49-1.37,0.98-2.12,1.37c-0.75,0.38-1.52,0.7-2.33,0.9c-0.5,0.12-1.01,0.19-1.52,0.21C13.5,32.29,13.23,32.04,13.22,31.56
			z"/>
	</g>
	<g>
		<path class="st4" d="M13.22,31.56c0.01-0.09-0.01-0.17,0.04-0.28c2.48,0.34,4.7-0.46,6.83-1.68c0.01,0.12-0.08,0.15-0.13,0.19
			c-0.68,0.49-1.37,0.98-2.12,1.37c-0.75,0.38-1.52,0.7-2.33,0.9c-0.5,0.12-1.01,0.19-1.52,0.21C13.5,32.29,13.23,32.04,13.22,31.56
			z"/>
	</g>
</g>
<rect x="47.39" y="6.05" class="st5" width="93.96" height="30.88"/>
<text transform="matrix(1 0 0 1 34.1235 30.6227)" class="st6 st7 st8">XAEGIR</text>
<text transform="matrix(1 0 0 1 34.1235 30.6227)" class="st9 st7 st8">XAEGIR</text>
</svg>
